Format : MPEG-4
Format profile : Base Media / Version 2
Codec ID : mp42
File size : 427 MiB
Duration : 1h 42mn
Overall bit rate : 579 Kbps
Encoded date : UTC 2010-10-22 19:43:30
Tagged date : UTC 2010-10-22 19:44:17
Writing application : mp4creator 1.6.1d

Video
ID : 1
Format : AVC
Format/Info : Advanced Video Codec
Format profile : Baseline@L1.3
Format settings, CABAC : No
Format settings, ReFrames : 1 frame
Codec ID : avc1
Codec ID/Info : Advanced Video Coding
Duration : 1h 42mn
Bit rate mode : Variable
Bit rate : 512 Kbps
Width : 480 pixels
Height : 272 pixels
Display aspect ratio : 16:9
Original display aspect ratio : 16:9
Frame rate mode : Constant
Frame rate : 24.000 fps
Resolution : 24 bits
Colorimetry : 4:2:0
Scan type : Progressive
Bits/(Pixel*Frame) : 0.163
Stream size : 377 MiB (88%)
Encoded date : UTC 2010-10-22 19:43:30
Tagged date : UTC 2010-10-22 19:44:12

Audio
ID : 2
Format : AAC
Format/Info : Advanced Audio Codec
Format version : Version 4
Format profile : LC
Format settings, SBR : Yes
Format settings, PS : No
Codec ID : 40
Duration : 1h 42mn
Bit rate mode : Variable
Bit rate : 66.15 Kbps
Maximum bit rate : 142 Kbps
Channel(s) : 2 channels
Channel positions : L R
Sampling rate : 48.0 KHz
Resolution : 16 bits
Stream size : 48.5 MiB (11%)
Encoded date : UTC 2010-10-22 19:44:14
Tagged date : UTC 2010-10-22 19:44:17

Detectives Danson (Dwayne Johnson) and Highsmith (Samuel L. Jackson) are pursuing a group of criminals in a Cadillac Escalade. After a brief firefight that results in the hood of Highsmith's Chevy Chevelle getting blown into the windshield, the two inadvertently crash into the side of a double decker bus. Danson drives it after the criminals and meticulously slingshots the trapped car out the other side of the bus (with Highsmith firing the whole time) and crashing into the Trump Tower, inexplicably surviving. The criminals manage to get away, until police backup quickly arrives and arrests them.
 
http://www.imdb.com/title/tt1386588/

screens
 
http://img835.imageshack.us/img835/9466/otherguysh264vicemp4sna.jpg 
http://img688.imageshack.us/img688/9466/otherguysh264vicemp4sna.jpg 
http://img88.imageshack.us/img88/9466/otherguysh264vicemp4sna.jpg 
http://img814.imageshack.us/img814/9466/otherguysh264vicemp4sna.jpg
 
http://img254.imageshack.us/img254/5121/otherguysh264vicemp4thu.jpg